<?xml version="1.0" encoding="UTF-8"?>
<svg id="Layer_1" xmlns="http://www.w3.org/2000/svg" version="1.1" viewBox="0 0 1000 1000">
  <!-- Generator: Adobe Illustrator 29.5.1, SVG Export Plug-In . SVG Version: 2.1.0 Build 141)  -->
  <defs>
    <style>
      .st0 {
        fill: #36bcab;
      }
    </style>
  </defs>
  <path class="st0" d="M421.25,545.24c26.28,45.52,84.5,61.12,130.02,34.84l336.45-194.25c45.52-26.28,61.12-84.5,34.84-130.02-26.28-45.53-84.5-61.12-130.03-34.84l-336.45,194.25c-45.52,26.28-61.12,84.5-34.84,130.02ZM500.33,440.27c32.76,0,59.31,26.55,59.31,59.31s-26.55,59.31-59.31,59.31-59.31-26.55-59.31-59.31,26.55-59.31,59.31-59.31Z"/>
  <path class="st0" d="M226.31,547.88l-113.37,65.45c-45.52,26.28-61.12,84.5-34.84,130.02,26.28,45.53,84.5,61.12,130.03,34.84l113.37-65.46c45.53-26.28,61.12-84.5,34.84-130.02-26.28-45.52-84.5-61.12-130.02-34.84Z"/>
  <path class="st0" d="M887.49,614.12l-113.24-65.68c-45.47-26.38-103.72-10.9-130.09,34.58s-10.9,103.72,34.58,130.09l113.24,65.68c45.47,26.38,103.72,10.9,130.09-34.58,26.38-45.47,10.9-103.72-34.58-130.09Z"/>
  <path class="st0" d="M321.93,286.06l-113.24-65.68c-45.47-26.38-103.72-10.9-130.09,34.58-26.38,45.47-10.9,103.72,34.58,130.09l113.24,65.68c45.47,26.38,103.72,10.9,130.09-34.58,26.38-45.47,10.9-103.72-34.58-130.09Z"/>
  <path class="st0" d="M500.97,665.86c-52.57.2-95.02,42.98-94.82,95.55l.5,130.91c.2,52.57,42.98,95.02,95.55,94.82,52.57-.2,95.02-42.98,94.82-95.55l-.5-130.91c-.2-52.57-42.98-95.02-95.55-94.82Z"/>
  <path class="st0" d="M499.7,333.31c52.57-.2,95.02-42.98,94.82-95.55l-.5-130.91c-.2-52.57-42.98-95.02-95.55-94.82-52.57.2-95.02,42.98-94.82,95.55l.5,130.91c.2,52.57,42.98,95.02,95.55,94.82Z"/>
</svg>